<svg width="24" height="25" viewBox="0 0 24 25" fill="none" xmlns="http://www.w3.org/2000/svg">
<path d="M18.9702 3.9856H16.3704V2.8714C16.3704 2.7729 16.3313 2.67843 16.2617 2.60878C16.192 2.53913 16.0975 2.5 15.999 2.5C15.9005 2.5 15.8061 2.53913 15.7364 2.60878C15.6668 2.67843 15.6276 2.7729 15.6276 2.8714V3.9856H7.45681V2.8714C7.45681 2.7729 7.41768 2.67843 7.34803 2.60878C7.27838 2.53913 7.18391 2.5 7.08541 2.5C6.98691 2.5 6.89244 2.53913 6.82279 2.60878C6.75314 2.67843 6.71401 2.7729 6.71401 2.8714V3.9856H4.1142C3.8187 3.9856 3.5353 4.10299 3.32634 4.31194C3.11739 4.52089 3 4.8043 3 5.0998V19.9558C3 20.2513 3.11739 20.5347 3.32634 20.7437C3.5353 20.9526 3.8187 21.07 4.1142 21.07H18.9702C19.2657 21.07 19.5491 20.9526 19.7581 20.7437C19.9671 20.5347 20.0844 20.2513 20.0844 19.9558V5.0998C20.0844 4.8043 19.9671 4.52089 19.7581 4.31194C19.5491 4.10299 19.2657 3.9856 18.9702 3.9856ZM4.1142 4.7284H6.71401V5.8426C6.71401 5.9411 6.75314 6.03557 6.82279 6.10522C6.89244 6.17487 6.98691 6.214 7.08541 6.214C7.18391 6.214 7.27838 6.17487 7.34803 6.10522C7.41768 6.03557 7.45681 5.9411 7.45681 5.8426V4.7284H15.6276V5.8426C15.6276 5.9411 15.6668 6.03557 15.7364 6.10522C15.8061 6.17487 15.9005 6.214 15.999 6.214C16.0975 6.214 16.192 6.17487 16.2617 6.10522C16.3313 6.03557 16.3704 5.9411 16.3704 5.8426V4.7284H18.9702C19.0687 4.7284 19.1632 4.76753 19.2329 4.83718C19.3025 4.90683 19.3416 5.0013 19.3416 5.0998V8.4424H3.7428V5.0998C3.7428 5.0013 3.78193 4.90683 3.85158 4.83718C3.92123 4.76753 4.0157 4.7284 4.1142 4.7284ZM18.9702 20.3272H4.1142C4.0157 20.3272 3.92123 20.2881 3.85158 20.2184C3.78193 20.1488 3.7428 20.0543 3.7428 19.9558V9.1852H19.3416V19.9558C19.3416 20.0543 19.3025 20.1488 19.2329 20.2184C19.1632 20.2881 19.0687 20.3272 18.9702 20.3272Z" fill="#434C4E"/>
</svg>
