<svg width="30" height="29" viewBox="0 0 30 29" fill="none" xmlns="http://www.w3.org/2000/svg"><path d="M8.763 10.199 C 8.202 10.332,7.875 11.069,8.147 11.589 C 8.292 11.869,14.480 18.028,14.711 18.123 C 14.947 18.221,15.203 18.221,15.439 18.123 C 15.670 18.028,21.858 11.869,22.003 11.589 C 22.297 11.025,21.911 10.273,21.278 10.178 C 20.761 10.101,20.885 9.998,17.874 13.004 C 16.362 14.514,15.102 15.750,15.075 15.750 C 15.048 15.750,13.788 14.514,12.276 13.004 C 9.923 10.655,9.496 10.250,9.325 10.204 C 9.101 10.144,8.998 10.143,8.763 10.199 " stroke="none" fill-rule="evenodd" fill="black"></path></svg>