<svg width="29" height="29" viewBox="0 0 29 29" fill="none" xmlns="http://www.w3.org/2000/svg"><path d="M17.448 7.616 C 17.234 7.708,11.053 13.869,10.920 14.123 C 10.860 14.238,10.827 14.400,10.827 14.572 C 10.827 14.745,10.860 14.907,10.920 15.022 C 11.061 15.292,17.236 21.439,17.459 21.531 C 17.928 21.725,18.498 21.511,18.742 21.049 C 18.843 20.857,18.842 20.369,18.741 20.179 C 18.698 20.099,17.444 18.816,15.953 17.328 C 14.463 15.839,13.243 14.599,13.243 14.572 C 13.243 14.546,14.463 13.306,15.953 11.817 C 17.444 10.329,18.698 9.046,18.741 8.966 C 18.842 8.776,18.843 8.288,18.742 8.096 C 18.498 7.634,17.913 7.417,17.448 7.616 " stroke="none" fill-rule="evenodd" fill="black"></path></svg>