<svg width="24" height="25" viewBox="0 0 24 25" fill="none" xmlns="http://www.w3.org/2000/svg"><path d="M4.841 5.052 C 4.579 5.143,4.448 5.469,4.577 5.712 C 4.609 5.771,6.175 7.359,8.057 9.240 L 11.480 12.660 8.022 16.120 C 5.665 18.479,4.556 19.615,4.538 19.690 C 4.495 19.866,4.551 20.057,4.683 20.183 C 4.784 20.280,4.839 20.300,5.003 20.300 L 5.200 20.300 8.680 16.820 L 12.160 13.340 15.610 16.786 C 17.507 18.681,19.099 20.252,19.147 20.276 C 19.269 20.337,19.385 20.331,19.546 20.255 C 19.714 20.175,19.800 20.019,19.800 19.793 L 19.800 19.621 16.340 16.160 C 14.437 14.257,12.880 12.682,12.880 12.660 C 12.880 12.638,14.437 11.063,16.340 9.160 L 19.800 5.699 19.800 5.513 C 19.800 5.182,19.507 4.952,19.200 5.040 C 19.090 5.071,18.313 5.827,15.610 8.530 L 12.160 11.980 8.690 8.510 C 6.781 6.601,5.189 5.040,5.153 5.040 C 5.116 5.040,5.063 5.032,5.033 5.022 C 5.004 5.012,4.918 5.026,4.841 5.052 " stroke="none" fill-rule="evenodd" fill="black"></path></svg>